HIERARCHY
ROOT Hips
{
	OFFSET -0.001795 -0.223333 0.028219
	CHANNELS 6 Xposition Yposition Zposition Zrotation Yrotation Xrotation 
	JOINT LeftUpLeg
	{
		OFFSET 0.069520 -0.091406 -0.006815
		CHANNELS 3 Zrotation Yrotation Xrotation
		JOINT LeftLeg
		{
			OFFSET 0.034277 -0.375199 -0.004496
			CHANNELS 3 Zrotation Yrotation Xrotation
			JOINT LeftFoot
			{
				OFFSET -0.013596 -0.397961 -0.043693
				CHANNELS 3 Zrotation Yrotation Xrotation
				JOINT LeftToe
				{
					OFFSET 0.026358 -0.055791 0.119288
					CHANNELS 3 Zrotation Yrotation Xrotation
					End Site
					{
						OFFSET 0.000000 0.000000 0.000000
					}
				}
			}
		}
	}
	JOINT RightUpLeg
	{
		OFFSET -0.067670 -0.090522 -0.004320
		CHANNELS 3 Zrotation Yrotation Xrotation
		JOINT RightLeg
		{
			OFFSET -0.038290 -0.382569 -0.008850
			CHANNELS 3 Zrotation Yrotation Xrotation
			JOINT RightFoot
			{
				OFFSET 0.015774 -0.398415 -0.042312
				CHANNELS 3 Zrotation Yrotation Xrotation
				JOINT RightToe
				{
					OFFSET -0.025372 -0.048144 0.123348
					CHANNELS 3 Zrotation Yrotation Xrotation
					End Site
					{
						OFFSET 0.000000 0.000000 0.000000
					}
				}
			}
		}
	}
	JOINT Spine
	{
		OFFSET -0.002533 0.108963 -0.026696
		CHANNELS 3 Zrotation Yrotation Xrotation
		JOINT Spine1
		{
			OFFSET 0.005487 0.135180 0.001092
			CHANNELS 3 Zrotation Yrotation Xrotation
			JOINT Spine2
			{
				OFFSET 0.001457 0.052922 0.025425
				CHANNELS 3 Zrotation Yrotation Xrotation
				JOINT Neck
				{
					OFFSET -0.002778 0.213870 -0.042857
					CHANNELS 3 Zrotation Yrotation Xrotation
					JOINT Head
					{
						OFFSET 0.005152 0.064970 0.051349
						CHANNELS 3 Zrotation Yrotation Xrotation
						End Site
						{
							OFFSET 0.000000 0.000000 0.000000
						}
					}
				}
				JOINT LeftShoulder
				{
					OFFSET 0.078845 0.121749 -0.034090
					CHANNELS 3 Zrotation Yrotation Xrotation
					JOINT LeftArm
					{
						OFFSET 0.090977 0.030469 -0.008868
						CHANNELS 3 Zrotation Yrotation Xrotation
						JOINT LeftForeArm
						{
							OFFSET 0.259612 -0.012772 -0.027456
							CHANNELS 3 Zrotation Yrotation Xrotation
							JOINT LeftHand
							{
								OFFSET 0.249234 0.008986 -0.001171
								CHANNELS 3 Zrotation Yrotation Xrotation
								End Site
								{
									OFFSET 0.000000 0.000000 0.000000
								}
							}
						}
					}
				}
				JOINT RightShoulder
				{
					OFFSET -0.081759 0.118833 -0.038615
					CHANNELS 3 Zrotation Yrotation Xrotation
					JOINT RightArm
					{
						OFFSET -0.096012 0.032551 -0.009143
						CHANNELS 3 Zrotation Yrotation Xrotation
						JOINT RightForeArm
						{
							OFFSET -0.253742 -0.013329 -0.021401
							CHANNELS 3 Zrotation Yrotation Xrotation
							JOINT RightHand
							{
								OFFSET -0.255298 0.007772 -0.005559
								CHANNELS 3 Zrotation Yrotation Xrotation
								End Site
								{
									OFFSET 0.000000 0.000000 0.000000
								}
							}
						}
					}
				}
			}
		}
	}
}
MOTION
Frames: 7
Frame Time: 0.050000
0.000000 0.939878 0.000000 0.102350 7.748622 2.211598 5.897113 0.032729 9.110761 -3.707466 0.300230 4.920571 8.135455 18.254016 16.889279 0.000000 0.000000 0.000000 -6.629133 0.597092 -17.262663 8.743589 -1.441032 6.786129 -21.997101 -34.241822 35.127717 0.000000 0.000000 0.000000 6.712191 -0.893670 7.426480 -5.988300 2.129792 -24.602184 -2.226564 1.128791 28.452803 14.175147 -4.974069 -30.339361 0.000000 0.000000 0.000000 -17.500158 -4.625070 0.059158 -48.378613 -3.798618 -6.334041 -13.165275 -23.625486 3.601831 0.000000 0.000000 0.000000 27.913811 -3.950405 -1.972871 53.337203 6.857935 -5.346462 7.704663 24.137527 2.949129 0.000000 0.000000 0.000000 
-0.022177 0.943701 0.028378 -0.135038 3.107324 3.063865 8.270621 -0.113600 7.626250 -5.995969 0.760005 10.343480 6.945381 16.713716 21.034971 0.000000 0.000000 0.000000 -4.469612 1.153138 -18.568332 9.237078 -1.561427 10.636050 -17.589006 -31.521836 27.771984 0.000000 0.000000 0.000000 7.179520 -0.743531 5.745267 -5.890323 2.034463 -24.657912 -1.811421 3.111654 28.540755 11.878691 -4.221462 -28.118925 0.000000 0.000000 0.000000 -16.199735 -3.190073 -0.269766 -49.807217 -4.014103 -6.541222 -13.481793 -23.634613 3.744035 0.000000 0.000000 0.000000 25.703529 -3.844700 -2.235647 55.743214 5.548573 -5.816004 8.539843 24.020025 3.053851 0.000000 0.000000 0.000000 
-0.044618 0.949890 0.055803 0.121879 -1.343860 2.870426 10.268396 -0.138734 3.766951 -8.391704 1.884168 20.568042 6.218583 15.824212 27.116729 0.000000 0.000000 0.000000 -2.870853 1.298324 -15.803177 8.576911 -1.176836 8.898385 -13.382420 -27.273588 24.464022 0.000000 0.000000 0.000000 7.527168 -0.772463 6.072643 -4.946293 1.735834 -25.500271 -2.333775 4.730591 29.308145 11.181274 -3.671861 -30.127911 0.000000 0.000000 0.000000 -17.675134 -2.377266 -0.480621 -49.817982 -3.011466 -7.038322 -11.924486 -23.042340 3.417507 0.000000 0.000000 0.000000 23.170581 -4.478318 -2.834701 57.663667 5.116780 -6.085166 11.523443 22.557792 3.387889 0.000000 0.000000 0.000000 
-0.065250 0.952057 0.082033 0.502551 -5.156157 1.718001 10.788033 -0.009987 0.193235 -9.107562 3.183848 29.917839 6.835223 16.431661 31.855952 0.000000 0.000000 0.000000 -1.614302 1.079243 -11.542340 8.099479 -0.909061 6.672836 -10.402369 -23.917827 20.620513 0.000000 0.000000 0.000000 7.732742 -0.840126 7.121273 -5.156258 1.741161 -25.657032 -2.306464 6.066967 29.686527 13.192172 -5.089256 -29.633929 0.000000 0.000000 0.000000 -19.147025 -2.416546 -0.262269 -48.248774 -2.269741 -7.191764 -12.243394 -23.425906 3.586305 0.000000 0.000000 0.000000 25.029106 -3.426030 -2.721559 54.906309 5.972410 -5.557183 12.072226 23.193176 3.514418 0.000000 0.000000 0.000000 
-0.085653 0.955118 0.107069 0.853852 -10.379837 0.455005 9.921154 0.141756 -3.129348 -8.902426 4.659497 36.075877 9.140117 18.425616 31.864538 0.000000 0.000000 0.000000 0.376718 0.738744 -7.349914 5.760160 -0.460778 4.763127 -6.644870 -18.845026 17.436519 0.000000 0.000000 0.000000 6.934357 -0.791253 7.920914 -4.265868 1.462541 -25.354821 -1.521810 9.119509 29.963300 13.521114 -5.501593 -28.867786 0.000000 0.000000 0.000000 -19.323630 -3.125083 0.254136 -47.895167 -2.973537 -6.960512 -12.509514 -24.332601 3.815910 0.000000 0.000000 0.000000 25.434257 -3.392390 -2.855747 54.429761 6.395681 -5.390922 13.156844 23.856846 3.843885 0.000000 0.000000 0.000000 
-0.105153 0.957411 0.130805 1.275524 -15.856497 -0.306502 8.385384 0.171461 -6.205163 -8.093488 5.758607 38.280026 10.209552 19.376313 20.608058 0.000000 0.000000 0.000000 1.557574 0.351935 -4.018571 4.310373 -0.246524 3.097409 -3.674486 -14.468038 15.492962 0.000000 0.000000 0.000000 6.675100 -0.756674 8.436715 -4.302549 1.385348 -25.436801 -1.070999 10.721185 30.239373 13.678453 -5.983846 -28.425413 0.000000 0.000000 0.000000 -19.371627 -3.127102 0.820670 -47.989524 -3.929287 -6.766859 -12.501502 -24.548267 3.941535 0.000000 0.000000 0.000000 25.449910 -2.193160 -2.806501 54.193936 6.364970 -5.284930 13.076787 24.721156 3.878584 0.000000 0.000000 0.000000 
-0.123788 0.958411 0.152989 1.589099 -21.616708 -0.761345 6.384135 0.072530 -8.890025 -6.208280 5.670436 36.640964 9.498510 18.638986 9.861231 0.000000 0.000000 0.000000 2.631584 -0.002595 -1.254230 2.584859 -0.089819 1.753623 -0.752006 -9.889904 13.971004 0.000000 0.000000 0.000000 6.231169 -0.706263 8.915028 -3.970394 1.209850 -25.533129 -0.172464 12.831958 30.520361 13.182091 -5.954316 -28.362871 0.000000 0.000000 0.000000 -19.413938 -2.862113 1.174996 -48.466098 -4.491453 -6.758851 -12.115733 -25.525582 4.129094 0.000000 0.000000 0.000000 25.164030 -1.661302 -3.052793 54.035837 7.480222 -4.689404 13.607895 25.975594 4.129636 0.000000 0.000000 0.000000 
